<svg xmlns="http://www.w3.org/2000/svg" width="40.197" height="40.196" viewBox="0 0 40.197 40.196">
  <g id="_004-behance" data-name="004-behance" transform="translate(0.001 0)">
    <path id="Subtraction_4" data-name="Subtraction 4" d="M20.1,40.2A20.1,20.1,0,0,1,5.886,5.887,20.1,20.1,0,1,1,34.309,34.309,19.966,19.966,0,0,1,20.1,40.2ZM27.3,16.6a5.253,5.253,0,0,0-5.083,2.9,7.168,7.168,0,0,0-.729,2.918,6.148,6.148,0,0,0,1.43,4.17,5.728,5.728,0,0,0,4.382,1.62s.078,0,.206,0c.83,0,4.973-.194,4.973-4.034H29.822a1.441,1.441,0,0,1-.4.97,2.708,2.708,0,0,1-2.031.658s-.035,0-.092,0a2.974,2.974,0,0,1-1.459-.381,2.414,2.414,0,0,1-1.108-2.252H32.57c0-.029.4-3.078-1.3-5.015A5.016,5.016,0,0,0,27.3,16.6Zm-19.1-3.853V27.888h7.926c.487,0,4.76-.125,4.76-4.472a4.613,4.613,0,0,0-.933-3,2.507,2.507,0,0,0-1.9-.755,2.619,2.619,0,0,0,2.306-2.88c0-2.486-1.64-4.03-4.28-4.03Zm15.839.892v1.864h6.248V13.641ZM15.863,25.2H11.678V21.147h4.405a1.6,1.6,0,0,1,1.048.457,2.21,2.21,0,0,1,.543,1.628C17.674,24.509,17.065,25.171,15.863,25.2Zm13.805-4.053H24.7a2.69,2.69,0,0,1,2.66-2.327,2.21,2.21,0,0,1,1.643.608,2.655,2.655,0,0,1,.662,1.719ZM15.81,18.82H11.678V15.439h4.405c.011,0,1.068.018,1.068,1.576C17.151,18.6,16.507,18.82,15.81,18.82Z" fill="#fff"/>
  </g>
</svg>
