<svg id="_002-instagram" data-name="002-instagram" xmlns="http://www.w3.org/2000/svg" width="40.196" height="40.196" viewBox="0 0 40.196 40.196">
  <path id="Path_60" data-name="Path 60" d="M39.207,23.88H27.227a3.472,3.472,0,0,0-3.468,3.468v11.98A3.472,3.472,0,0,0,27.227,42.8h11.98a3.472,3.472,0,0,0,3.468-3.468V27.348A3.472,3.472,0,0,0,39.207,23.88Zm-5.99,15.686a6.227,6.227,0,1,1,6.227-6.227A6.234,6.234,0,0,1,33.217,39.566ZM39.645,28.4a1.473,1.473,0,1,1,1.473-1.473A1.475,1.475,0,0,1,39.645,28.4Z" transform="translate(-13.119 -13.186)" fill="#fff"/>
  <path id="Path_61" data-name="Path 61" d="M40.445,36.971a3.6,3.6,0,1,0,3.6,3.6A3.6,3.6,0,0,0,40.445,36.971Z" transform="translate(-20.347 -20.414)" fill="#fff"/>
  <path id="Path_62" data-name="Path 62" d="M20.1,0A20.1,20.1,0,1,0,40.2,20.1,20.1,20.1,0,0,0,20.1,0Zm12.09,26.142a6.106,6.106,0,0,1-6.1,6.1H14.108a6.106,6.106,0,0,1-6.1-6.1V14.162a6.106,6.106,0,0,1,6.1-6.1h11.98a6.106,6.106,0,0,1,6.1,6.1Z" fill="#fff"/>
</svg>