<svg xmlns="http://www.w3.org/2000/svg" width="40.196" height="40.196" viewBox="0 0 40.196 40.196">
  <g id="_003-linkedin" data-name="003-linkedin" transform="translate(-0.001 0)">
    <path id="Subtraction_2" data-name="Subtraction 2" d="M20.1,40.2A20.1,20.1,0,0,1,5.887,5.887,20.1,20.1,0,1,1,34.31,34.309,19.966,19.966,0,0,1,20.1,40.2ZM24.87,19c1.592,0,2.434,1.13,2.434,3.267V30h4.8V21.715c0-4.072-2.067-6.5-5.531-6.5a4.75,4.75,0,0,0-4.33,2.387V15.552h-4.8c.063,1.342,0,14.318,0,14.449h4.8V21.931a3.2,3.2,0,0,1,.158-1.171A2.679,2.679,0,0,1,24.87,19ZM9.984,15.552V30h4.8V15.552Zm2.433-6.964a2.5,2.5,0,1,0-.063,4.993h.032a2.5,2.5,0,1,0,.031-4.993Z" fill="#fff"/>
  </g>
</svg>
