<svg id="paper-plane" xmlns="http://www.w3.org/2000/svg" xmlns:xlink="http://www.w3.org/1999/xlink" width="30.004" height="30.004" viewBox="0 0 30.004 30.004">
  <defs>
    <clipPath id="clip-path">
      <path id="_Icon_小olor" data-name=" Icon 小olor" d="M19.505,30a1.5,1.5,0,0,1-1.422-1.025L13.817,16.187,1.026,11.923a1.5,1.5,0,0,1,0-2.848l27.008-9A1.558,1.558,0,0,1,28.483,0a.385.385,0,0,1,.055,0l.042,0a1.423,1.423,0,0,1,.413.081.965.965,0,0,1,.134.053,1.446,1.446,0,0,1,.443.292,1.456,1.456,0,0,1,.292.442,1.065,1.065,0,0,1,.053.136,1.391,1.391,0,0,1,.08.405.437.437,0,0,0,0,.046.336.336,0,0,1,0,.06,1.483,1.483,0,0,1-.073.448l-9,27.008A1.5,1.5,0,0,1,19.505,30ZM25.075,7.049h0l-8.355,8.356L19.5,23.755l5.572-16.7Zm-2.12-2.12L6.244,10.5,14.6,13.284Z" fill="#17AC9D"/>
    </clipPath>
  </defs>
  <path id="_Icon_小olor-2" data-name=" Icon 小olor" d="M19.505,30a1.5,1.5,0,0,1-1.422-1.025L13.817,16.187,1.026,11.923a1.5,1.5,0,0,1,0-2.848l27.008-9A1.558,1.558,0,0,1,28.483,0a.385.385,0,0,1,.055,0l.042,0a1.423,1.423,0,0,1,.413.081.965.965,0,0,1,.134.053,1.446,1.446,0,0,1,.443.292,1.456,1.456,0,0,1,.292.442,1.065,1.065,0,0,1,.053.136,1.391,1.391,0,0,1,.08.405.437.437,0,0,0,0,.046.336.336,0,0,1,0,.06,1.483,1.483,0,0,1-.073.448l-9,27.008A1.5,1.5,0,0,1,19.505,30ZM25.075,7.049h0l-8.355,8.356L19.5,23.755l5.572-16.7Zm-2.12-2.12L6.244,10.5,14.6,13.284Z" transform="translate(0 0)" fill="#17AC9D"/>
</svg>
