<svg xmlns="http://www.w3.org/2000/svg" width="40.197" height="40.196" viewBox="0 0 40.197 40.196">
  <g id="twitter" transform="translate(0.001)">
    <path id="Subtraction_3" data-name="Subtraction 3" d="M20.1,40.2A20.1,20.1,0,0,1,5.886,5.887,20.1,20.1,0,1,1,34.309,34.309,19.966,19.966,0,0,1,20.1,40.2ZM8.994,29.062h0A13.663,13.663,0,0,0,30.025,17.551c0-.213,0-.422-.014-.621a9.679,9.679,0,0,0,2.4-2.486,9.593,9.593,0,0,1-2.759.755,4.81,4.81,0,0,0,2.113-2.657,9.642,9.642,0,0,1-3.051,1.165,4.808,4.808,0,0,0-8.186,4.382,13.686,13.686,0,0,1-9.9-5.02,4.81,4.81,0,0,0,1.486,6.414,4.8,4.8,0,0,1-2.175-.6c0,.021,0,.041,0,.061a4.815,4.815,0,0,0,3.854,4.71,4.77,4.77,0,0,1-1.265.169,4.849,4.849,0,0,1-.9-.085A4.8,4.8,0,0,0,16.1,27.073a9.693,9.693,0,0,1-7.111,1.989Z" fill="#fff"/>
  </g>
</svg>
